<svg width="256" height="256" viewBox="0 0 256 256" fill="none" xmlns="http://www.w3.org/2000/svg">
<rect width="256" height="256" fill="white"/>
<path d="M90.665 161.899C96.1505 165.895 101.598 169.977 106.837 174.289C108.32 175.507 109.782 176.748 111.224 178.009C111.854 176.195 112.505 174.389 113.179 172.592C114.103 170.09 115.069 167.6 116.078 165.122C125.059 142.863 136.779 121.691 150.108 101.784C157.809 90.3031 165.972 78.87 175.223 68.5714C189.453 52.7377 204.701 37.849 220.869 24V76.6249C210.731 83.3204 201.045 90.675 191.872 98.641C170.019 117.688 150.915 139.675 135.106 163.973C133.264 166.801 131.448 169.671 129.697 172.58C127.705 175.878 125.807 179.235 124.005 182.651C123.124 184.329 122.274 186.024 121.454 187.736C122.737 189.066 124.102 190.426 125.471 191.824C131.552 198.02 137.724 204.975 137.413 213.953C136.951 227.394 122.162 236.967 110.238 229.236C101.977 223.875 101.029 215.188 102.563 206.272C103.211 202.761 104.096 199.297 105.211 195.905C105.786 194.107 106.396 192.351 106.962 190.666C105.806 189.946 104.631 189.259 103.449 188.592C103.04 188.367 102.637 188.139 102.225 187.926C92.9723 182.974 82.8129 179.875 72.606 177.432C59.9107 174.397 47.0059 172.317 34 171.209C34 156.735 34 142.264 34 127.795C54.2508 136.619 72.8015 148.905 90.665 161.899ZM120.267 221.769C125.583 222.418 129.6 218.007 128.19 212.839C127.052 208.692 124.043 205.191 121.129 202.093L120.575 201.5C119.445 200.316 118.265 199.173 117.035 198.074C116.49 199.534 115.773 201.447 115.113 203.55C114.475 205.546 113.98 207.585 113.632 209.652C112.702 215.442 113.599 220.949 120.267 221.769Z" fill="url(#paint0_radial_5231_209766)"/>
<mask id="mask0_5231_209766" style="mask-type:alpha" maskUnits="userSpaceOnUse" x="34" y="24" width="187" height="208">
<g clip-path="url(#clip0_5231_209766)">
<path d="M90.665 161.899C96.1505 165.895 101.598 169.976 106.837 174.289C108.32 175.507 109.782 176.748 111.224 178.009C111.854 176.195 112.505 174.389 113.179 172.592C114.103 170.09 115.069 167.6 116.078 165.122C125.059 142.863 136.779 121.691 150.108 101.784C157.809 90.3031 165.972 78.87 175.223 68.5713C189.453 52.7377 204.701 37.849 220.869 24V76.6249C210.731 83.3204 201.045 90.675 191.872 98.641C170.019 117.688 150.915 139.675 135.106 163.973C133.264 166.801 131.448 169.671 129.697 172.58C127.705 175.878 125.807 179.235 124.005 182.651C123.124 184.329 122.274 186.024 121.454 187.736C122.737 189.066 124.102 190.426 125.471 191.824C131.552 198.02 137.724 204.975 137.413 213.952C136.951 227.394 122.162 236.967 110.238 229.236C101.977 223.875 101.029 215.188 102.563 206.272C103.211 202.761 104.096 199.297 105.211 195.905C105.786 194.107 106.396 192.351 106.962 190.666C105.806 189.946 104.631 189.259 103.449 188.592C103.04 188.367 102.637 188.139 102.225 187.926C92.9723 182.974 82.8129 179.875 72.606 177.432C59.9107 174.397 47.0059 172.317 34 171.209C34 156.735 34 142.264 34 127.795C54.2508 136.619 72.8015 148.905 90.665 161.899ZM120.267 221.769C125.583 222.418 129.6 218.007 128.19 212.839C127.052 208.692 124.043 205.191 121.129 202.093L120.575 201.5C119.445 200.316 118.265 199.173 117.035 198.074C116.49 199.534 115.773 201.447 115.113 203.55C114.475 205.546 113.98 207.585 113.632 209.652C112.702 215.442 113.599 220.949 120.267 221.769Z" fill="white"/>
</g>
</mask>
<g mask="url(#mask0_5231_209766)">
<path style="mix-blend-mode:multiply" d="M102.418 206.308L113.765 209.761C114.112 207.696 114.607 205.657 115.246 203.663C115.913 201.557 116.635 199.643 117.174 198.183C114.045 195.418 110.426 192.785 106.861 190.609C106.286 192.295 105.501 194.439 104.936 196.237C103.82 199.629 103.066 202.796 102.418 206.308Z" fill="url(#paint1_linear_5231_209766)"/>
</g>
<mask id="mask1_5231_209766" style="mask-type:alpha" maskUnits="userSpaceOnUse" x="34" y="24" width="187" height="208">
<g clip-path="url(#clip1_5231_209766)">
<path d="M90.665 161.899C96.1505 165.895 101.598 169.976 106.837 174.289C108.32 175.507 109.782 176.748 111.224 178.009C111.854 176.195 112.505 174.389 113.179 172.592C114.103 170.09 115.069 167.6 116.078 165.122C125.059 142.863 136.779 121.691 150.108 101.784C157.809 90.3031 165.972 78.87 175.223 68.5713C189.453 52.7377 204.701 37.849 220.869 24V76.6249C210.731 83.3204 201.045 90.675 191.872 98.641C170.019 117.688 150.915 139.675 135.106 163.973C133.264 166.801 131.448 169.671 129.697 172.58C127.705 175.878 125.807 179.235 124.005 182.651C123.124 184.329 122.274 186.024 121.454 187.736C122.737 189.066 124.102 190.426 125.471 191.824C131.552 198.02 137.724 204.975 137.413 213.952C136.951 227.394 122.162 236.967 110.238 229.236C101.977 223.875 101.029 215.188 102.563 206.272C103.211 202.761 104.096 199.297 105.211 195.905C105.786 194.107 106.396 192.351 106.962 190.666C105.806 189.946 104.631 189.259 103.449 188.592C103.04 188.367 102.637 188.139 102.225 187.926C92.9723 182.974 82.8129 179.875 72.606 177.432C59.9107 174.397 47.0059 172.317 34 171.209C34 156.735 34 142.264 34 127.795C54.2508 136.619 72.8015 148.905 90.665 161.899ZM120.267 221.769C125.583 222.418 129.6 218.007 128.19 212.839C127.052 208.692 124.043 205.191 121.129 202.093L120.575 201.5C119.445 200.316 118.265 199.173 117.035 198.074C116.49 199.534 115.773 201.447 115.113 203.55C114.475 205.546 113.98 207.585 113.632 209.652C112.702 215.442 113.599 220.949 120.267 221.769Z" fill="white"/>
</g>
</mask>
<g mask="url(#mask1_5231_209766)">
<path style="mix-blend-mode:multiply" d="M111.166 178.022C114.652 181.052 118.127 184.269 121.329 187.607C121.388 187.666 121.447 187.725 121.507 187.791C122.321 186.076 123.159 184.589 124.039 182.909C125.831 179.5 129.406 174.329 131.399 171.02L117.034 162.727C116.031 165.203 113.924 170.131 113.035 172.797C112.356 174.596 111.79 176.209 111.166 178.022Z" fill="url(#paint2_linear_5231_209766)"/>
</g>
<defs>
<radialGradient id="paint0_radial_5231_209766" cx="0" cy="0" r="1" gradientUnits="userSpaceOnUse" gradientTransform="translate(115.305 191.646) rotate(-147.619) scale(71.8997 75.407)">
<stop stop-color="#00E176"/>
<stop offset="1" stop-color="#14F461"/>
</radialGradient>
<linearGradient id="paint1_linear_5231_209766" x1="112.737" y1="194.641" x2="104.936" y2="215.49" gradientUnits="userSpaceOnUse">
<stop stop-opacity="0.3"/>
<stop offset="0.562633" stop-opacity="0"/>
</linearGradient>
<linearGradient id="paint2_linear_5231_209766" x1="115.126" y1="182.231" x2="128.938" y2="153.142" gradientUnits="userSpaceOnUse">
<stop stop-opacity="0.3"/>
<stop offset="0.494157" stop-opacity="0"/>
</linearGradient>
<clipPath id="clip0_5231_209766">
<rect width="186.869" height="207.988" fill="white" transform="translate(34 24)"/>
</clipPath>
<clipPath id="clip1_5231_209766">
<rect width="186.869" height="207.988" fill="white" transform="translate(34 24)"/>
</clipPath>
</defs>
</svg>
